<?xml version="1.0" encoding="UTF-8"?>
<svg xmlns="http://www.w3.org/2000/svg" xmlns:xlink="http://www.w3.org/1999/xlink" width="280px" height="284px" viewBox="0 0 280 283" version="1.1">
<g id="surface1">
<path style=" stroke:none;fill-rule:nonzero;fill:rgb(0%,0%,0%);fill-opacity:1;" d="M 211.816406 40.417969 C 211.816406 40.960938 210.078125 44.375 208.9375 46.082031 C 205.515625 51.148438 199.941406 55.546875 193.925781 57.871094 C 192.863281 58.285156 191.75 58.726562 191.464844 58.828125 C 190.296875 59.292969 187.261719 60.097656 184.332031 60.742188 C 180.574219 61.542969 177.152344 61.878906 171.992188 61.90625 L 167.324219 61.933594 L 165.691406 64.183594 C 164.8125 65.421875 163.957031 66.898438 163.824219 67.414062 C 163.253906 69.535156 162.21875 72.613281 161.621094 73.851562 C 160.84375 75.480469 160.84375 75.765625 161.597656 75.765625 C 161.90625 75.765625 163.230469 75.894531 164.5 76.023438 C 166.886719 76.285156 169.167969 76.15625 176.296875 75.351562 C 179.175781 75.042969 189.828125 73.078125 190.296875 72.792969 C 190.375 72.742188 191.59375 72.40625 192.992188 72.015625 C 200.5625 70.027344 206.035156 65.5 208.988281 58.75 C 209.402344 57.792969 209.84375 56.839844 209.972656 56.632812 C 210.078125 56.425781 210.441406 55.078125 210.75 53.65625 C 211.0625 52.234375 211.453125 50.710938 211.605469 50.296875 C 211.894531 49.441406 212.230469 40.082031 211.96875 40.082031 C 211.894531 40.082031 211.816406 40.238281 211.816406 40.417969 Z M 211.816406 40.417969 "/>
<path style=" stroke:none;fill-rule:nonzero;fill:rgb(0%,0%,0%);fill-opacity:1;" d="M 164.371094 57.511719 C 162.21875 58.675781 144.640625 61.570312 130.355469 63.097656 C 123.613281 63.820312 121.386719 64.648438 118.378906 67.648438 C 115.164062 70.878906 112.828125 75.480469 109.40625 85.59375 C 108.8125 87.378906 108.164062 89.160156 107.980469 89.601562 C 107.800781 90.015625 107.515625 90.84375 107.332031 91.410156 C 107.152344 91.980469 106.554688 93.402344 106.011719 94.539062 C 104.871094 96.972656 103.238281 98.601562 101.527344 99.066406 C 100.515625 99.351562 98.050781 99.246094 96.78125 98.882812 C 96.261719 98.730469 96.238281 98.808594 96.339844 99.867188 C 96.859375 104.523438 98.804688 106.847656 102.148438 106.902344 C 107.59375 106.953125 110.496094 103.460938 115.472656 90.972656 C 119.699219 80.394531 121.046875 77.835938 123.769531 75.171875 C 127.96875 71.085938 132.378906 69.820312 144.796875 69.171875 C 152.964844 68.757812 154.363281 68.5 157.628906 66.898438 C 161.128906 65.164062 163.695312 62.320312 164.914062 58.777344 C 165.175781 57.976562 165.40625 57.277344 165.40625 57.226562 C 165.40625 57.070312 165.019531 57.175781 164.371094 57.511719 Z M 164.371094 57.511719 "/>
<path style=" stroke:none;fill-rule:nonzero;fill:rgb(0%,0%,0%);fill-opacity:1;" d="M 159.574219 69.121094 C 158.433594 69.871094 155.660156 70.878906 153.273438 71.371094 C 151.433594 71.757812 149.074219 71.964844 144.535156 72.144531 C 135.722656 72.484375 132.972656 72.921875 129.472656 74.601562 C 128.4375 75.09375 126.960938 76.101562 126.179688 76.800781 C 124.808594 78.042969 122.941406 80.578125 123.199219 80.808594 C 123.40625 81.042969 129.292969 81.6875 133.75 81.972656 C 145.160156 82.75 152.910156 80.472656 157.5 74.964844 C 158.433594 73.851562 159.601562 71.785156 160.039062 70.492188 C 160.664062 68.65625 160.609375 68.449219 159.574219 69.121094 Z M 159.574219 69.121094 "/>
<path style=" stroke:none;fill-rule:nonzero;fill:rgb(0%,0%,0%);fill-opacity:1;" d="M 206.085938 71.265625 C 204.710938 72.921875 199.835938 75.015625 195.039062 76 C 193.746094 76.257812 192.550781 76.542969 192.449219 76.621094 C 192.007812 76.90625 182.90625 78.066406 178.371094 78.457031 C 175.882812 78.664062 170.695312 78.972656 166.832031 79.128906 C 161.621094 79.359375 159.625 79.542969 159.003906 79.828125 C 158.484375 80.058594 157.757812 80.835938 157.136719 81.738281 C 156.046875 83.445312 154.597656 87.351562 154.855469 87.972656 C 155.089844 88.617188 157.757812 88.824219 165.277344 88.800781 C 172.511719 88.746094 182.492188 88.152344 186.25 87.53125 C 196.960938 85.773438 204.089844 80.472656 206.214844 72.714844 C 206.707031 70.957031 206.65625 70.570312 206.085938 71.265625 Z M 206.085938 71.265625 "/>
<path style=" stroke:none;fill-rule:nonzero;fill:rgb(0%,0%,0%);fill-opacity:1;" d="M 70.882812 75.949219 C 70.207031 76.023438 69.742188 76.464844 68.394531 78.171875 C 64.894531 82.566406 64.683594 82.957031 64.683594 84.714844 C 64.683594 86.109375 64.789062 86.421875 65.59375 87.480469 C 66.085938 88.128906 66.578125 88.695312 66.679688 88.695312 C 66.785156 88.695312 67.484375 87.84375 68.261719 86.808594 C 69.015625 85.800781 71.296875 83.265625 73.320312 81.195312 C 76.871094 77.578125 77.597656 76.464844 76.6875 76.179688 C 76.144531 76 71.761719 75.84375 70.882812 75.949219 Z M 70.882812 75.949219 "/>
<path style=" stroke:none;fill-rule:nonzero;fill:rgb(0%,0%,0%);fill-opacity:1;" d="M 150.242188 83.550781 C 142.800781 85.28125 134.011719 85.410156 125.972656 83.914062 C 124.054688 83.550781 122.320312 83.265625 122.109375 83.265625 C 121.773438 83.265625 121.230469 84.25 120.089844 86.910156 C 120.035156 87.015625 120.398438 87.222656 120.867188 87.351562 C 121.332031 87.507812 123.589844 88.230469 125.871094 88.953125 C 131.703125 90.84375 133.855469 91.28125 138.054688 91.464844 C 142.359375 91.644531 144.898438 91.230469 147.285156 89.964844 C 149.179688 88.953125 151.40625 86.601562 152.445312 84.558594 C 153.351562 82.75 153.457031 82.800781 150.242188 83.550781 Z M 150.242188 83.550781 "/>
<path style=" stroke:none;fill-rule:nonzero;fill:rgb(0%,0%,0%);fill-opacity:1;" d="M 118.273438 91.488281 C 117.910156 92.574219 117.808594 93.246094 117.964844 93.300781 C 118.117188 93.351562 120.375 94.488281 122.964844 95.808594 C 133.027344 100.925781 138.625 101.730469 142.929688 98.730469 C 143.707031 98.1875 145.445312 95.753906 145.445312 95.238281 C 145.445312 94.980469 144.613281 94.902344 142.101562 94.902344 C 140.257812 94.902344 137.820312 94.773438 136.707031 94.617188 C 134.683594 94.359375 130.226562 93.222656 127.554688 92.316406 C 124.679688 91.332031 119.492188 89.730469 119.179688 89.730469 C 119 89.730469 118.609375 90.53125 118.273438 91.488281 Z M 118.273438 91.488281 "/>
<path style=" stroke:none;fill-rule:nonzero;fill:rgb(0%,0%,0%);fill-opacity:1;" d="M 194.082031 90.714844 C 194.003906 90.84375 192.992188 91.125 191.800781 91.386719 C 190.605469 91.644531 189.179688 91.953125 188.609375 92.109375 C 188.039062 92.238281 184.878906 92.417969 181.585938 92.496094 C 176.945312 92.601562 174.921875 92.550781 172.511719 92.214844 C 164.527344 91.152344 154.804688 90.6875 152.574219 91.308594 C 152.003906 91.464844 151.328125 91.773438 151.070312 92.007812 C 150.578125 92.445312 147 99.324219 147 99.816406 C 147 99.96875 147.257812 100.074219 147.597656 100.074219 C 147.90625 100.074219 150.265625 100.410156 152.832031 100.851562 C 160.117188 102.039062 166.78125 102.917969 169.917969 103.097656 C 176.738281 103.460938 184.308594 101.753906 188.585938 98.910156 C 190.605469 97.589844 192.734375 95.136719 193.796875 92.960938 C 194.289062 91.953125 194.703125 90.972656 194.703125 90.816406 C 194.703125 90.453125 194.289062 90.402344 194.082031 90.714844 Z M 194.082031 90.714844 "/>
<path style=" stroke:none;fill-rule:nonzero;fill:rgb(0%,0%,0%);fill-opacity:1;" d="M 116.042969 96.996094 C 115.679688 97.851562 115.371094 98.703125 115.371094 98.859375 C 115.371094 99.246094 121.464844 103.074219 124.964844 104.933594 C 129.394531 107.261719 131.523438 107.726562 134.269531 106.902344 C 135.253906 106.617188 136.035156 106.125 137.042969 105.140625 C 137.820312 104.390625 138.445312 103.640625 138.445312 103.488281 C 138.445312 103.304688 138.082031 103.175781 137.5625 103.175781 C 136.035156 103.175781 133.234375 102.480469 130.019531 101.289062 C 126.648438 100.046875 120.710938 97.410156 118.558594 96.195312 C 117.808594 95.753906 117.082031 95.417969 116.953125 95.417969 C 116.847656 95.417969 116.433594 96.117188 116.042969 96.996094 Z M 116.042969 96.996094 "/>
<path style=" stroke:none;fill-rule:nonzero;fill:rgb(0%,0%,0%);fill-opacity:1;" d="M 61.160156 96.710938 C 57.320312 97.382812 49.285156 105.503906 39.25 118.820312 C 36.554688 122.417969 31.242188 129.863281 29.425781 132.578125 C 28.726562 133.640625 28 134.464844 27.765625 134.464844 C 27.535156 134.464844 26.183594 134.285156 24.757812 134.078125 C 18.40625 133.148438 14.597656 133.949219 11.769531 136.792969 C 11.121094 137.441406 10.371094 138.371094 10.109375 138.886719 L 9.617188 139.84375 L 16.59375 139.949219 C 20.664062 140 23.671875 140.15625 23.824219 140.285156 C 23.980469 140.441406 22.894531 142.429688 20.84375 145.714844 C 14.75 155.410156 11.613281 161.257812 10.242188 165.34375 C 9.253906 168.265625 9.253906 171.652344 10.214844 173.4375 C 10.941406 174.753906 12.261719 175.839844 13.144531 175.839844 C 13.535156 175.839844 13.820312 175.503906 14.257812 174.46875 C 15.089844 172.554688 23.75 155.152344 25.796875 151.273438 C 26.753906 149.492188 28.105469 146.929688 28.828125 145.585938 C 29.554688 144.242188 30.4375 142.613281 30.800781 141.992188 L 31.449219 140.878906 L 33.339844 141.035156 C 34.871094 141.191406 40.105469 142.015625 45.085938 142.921875 L 45.941406 143.078125 L 45.785156 144.65625 C 45.679688 145.535156 45.371094 147.859375 45.058594 149.851562 C 44.722656 152.207031 44.515625 154.894531 44.488281 157.480469 C 44.464844 162.03125 44.902344 164.050781 46.433594 166.375 C 47.417969 167.824219 49.414062 169.246094 51.074219 169.609375 C 52.734375 169.996094 55.714844 169.945312 57.089844 169.53125 C 59.8125 168.730469 63 165.808594 65.878906 161.539062 C 67.535156 159.085938 70.777344 152.800781 70.777344 152.078125 C 70.777344 151.480469 69.457031 150.242188 69.300781 150.679688 C 69.222656 150.859375 68.289062 152.335938 67.226562 153.914062 C 62.324219 161.152344 58.671875 164.722656 56.128906 164.722656 C 54.703125 164.722656 54.003906 163.972656 53.382812 161.695312 C 52.835938 159.703125 52.679688 153.835938 53.148438 151.300781 C 53.277344 150.5 53.5625 148.222656 53.796875 146.230469 C 54.160156 142.84375 55.6875 134.335938 56.257812 132.554688 C 56.390625 132.113281 56.984375 129.96875 57.554688 127.769531 C 59.707031 119.675781 64.011719 108.089844 67.175781 101.832031 L 67.925781 100.359375 L 67.277344 99.609375 C 66.394531 98.546875 64.011719 96.972656 62.972656 96.738281 C 62.480469 96.636719 61.679688 96.636719 61.160156 96.710938 Z M 55.351562 108.269531 C 52.320312 115.460938 48.742188 127.664062 47.339844 135.65625 C 47.105469 136.898438 46.875 137.957031 46.820312 138.007812 C 46.746094 138.085938 45.214844 137.828125 43.375 137.441406 C 41.558594 137.050781 38.890625 136.507812 37.488281 136.25 C 36.0625 135.964844 34.792969 135.65625 34.6875 135.550781 C 34.300781 135.164062 41.6875 123.167969 46.277344 116.753906 C 47.859375 114.554688 50.113281 111.660156 51.308594 110.289062 C 53.382812 107.910156 55.921875 105.609375 56.207031 105.867188 C 56.257812 105.945312 55.894531 107.03125 55.351562 108.269531 Z M 55.351562 108.269531 "/>
<path style=" stroke:none;fill-rule:nonzero;fill:rgb(0%,0%,0%);fill-opacity:1;" d="M 262.605469 96.816406 C 256.746094 98.882812 244.558594 119.054688 237.222656 138.8125 C 236.367188 141.113281 235.667969 143.101562 235.667969 143.207031 C 235.667969 143.308594 235.382812 144.265625 235.042969 145.351562 C 233.179688 151.195312 232.113281 158.773438 232.582031 162.808594 C 233.125 167.746094 235.304688 169.945312 239.554688 169.96875 C 244.609375 169.96875 249.175781 167.773438 252.984375 163.480469 C 255.085938 161.125 257.703125 157.222656 259.257812 154.121094 L 260.554688 151.558594 L 259.855469 151.042969 C 259.492188 150.730469 259.050781 150.5 258.871094 150.5 C 258.664062 150.5 257.859375 151.738281 257.054688 153.265625 C 254.074219 158.878906 249.71875 164.203125 247.046875 165.445312 C 245.675781 166.117188 243.753906 166.195312 242.667969 165.625 C 240.023438 164.253906 239.140625 159.445312 240.308594 152.75 L 240.773438 149.929688 L 242.5625 148.351562 C 249.691406 141.964844 255.292969 134.128906 261.074219 122.441406 C 265.195312 114.117188 265.609375 113.03125 266.804688 107.445312 C 266.90625 106.875 267.011719 105.296875 267.035156 103.925781 C 267.035156 100.28125 266.078125 97.4375 264.574219 96.765625 C 263.769531 96.402344 263.769531 96.402344 262.605469 96.816406 Z M 263.148438 106.589844 C 263.148438 107.054688 262.914062 108.476562 262.628906 109.71875 C 261.046875 116.832031 256.277344 126.269531 249.535156 135.628906 C 246.839844 139.378906 242.953125 143.671875 242.925781 142.921875 C 242.925781 142.328125 245 136.585938 246.476562 133.171875 C 250.261719 124.382812 257.082031 112.460938 261.308594 107.261719 C 262.679688 105.554688 263.148438 105.402344 263.148438 106.589844 Z M 263.148438 106.589844 "/>
<path style=" stroke:none;fill-rule:nonzero;fill:rgb(0%,0%,0%);fill-opacity:1;" d="M 113.347656 102.347656 C 112.726562 103.410156 112.597656 103.847656 112.804688 104.109375 C 113.167969 104.546875 119.542969 109.304688 121.332031 110.46875 C 124.496094 112.511719 126.390625 113.082031 128.152344 112.511719 C 129.109375 112.175781 130.667969 110.675781 130.667969 110.03125 C 130.667969 109.847656 130.070312 109.488281 129.320312 109.226562 C 126.15625 108.21875 120.917969 105.425781 116.667969 102.554688 C 115.605469 101.832031 114.617188 101.160156 114.464844 101.082031 C 114.332031 100.980469 113.816406 101.546875 113.347656 102.347656 Z M 113.347656 102.347656 "/>
<path style=" stroke:none;fill-rule:nonzero;fill:rgb(0%,0%,0%);fill-opacity:1;" d="M 142.773438 102.96875 C 142.410156 103.304688 141.476562 104.523438 140.675781 105.683594 L 139.222656 107.78125 L 139.972656 108.324219 C 141.375 109.332031 146.324219 111.660156 148.710938 112.433594 C 152.261719 113.625 153.921875 113.832031 159.574219 113.882812 C 165.199219 113.910156 166.730469 113.675781 169.425781 112.332031 C 171.292969 111.425781 173.78125 108.96875 174.300781 107.519531 C 174.480469 107.03125 174.171875 106.976562 170.203125 106.640625 C 169.0625 106.539062 167.894531 106.433594 167.609375 106.410156 C 159.054688 105.503906 158.226562 105.375 153.351562 104.160156 C 145.160156 102.089844 143.890625 101.960938 142.773438 102.96875 Z M 142.773438 102.96875 "/>
<path style=" stroke:none;fill-rule:nonzero;fill:rgb(0%,0%,0%);fill-opacity:1;" d="M 109.875 106.746094 L 108.941406 107.703125 L 110.417969 109.410156 C 113.816406 113.367188 117.316406 115.589844 120.167969 115.589844 C 120.867188 115.589844 123.148438 114.734375 123.148438 114.476562 C 123.148438 114.398438 122.5 114.039062 121.695312 113.675781 C 119.234375 112.511719 116.328125 110.445312 111.714844 106.589844 L 110.808594 105.816406 Z M 109.875 106.746094 "/>
<path style=" stroke:none;fill-rule:nonzero;fill:rgb(0%,0%,0%);fill-opacity:1;" d="M 105.777344 109.203125 C 105.285156 109.355469 104.820312 109.511719 104.765625 109.539062 C 104.609375 109.667969 105.804688 111.503906 106.917969 112.875 C 108.34375 114.605469 109.070312 115.203125 110.417969 115.875 C 111.636719 116.441406 114.488281 117.089844 114.722656 116.832031 C 114.902344 116.675781 107.125 108.839844 106.867188 108.890625 C 106.761719 108.917969 106.269531 109.046875 105.777344 109.203125 Z M 105.777344 109.203125 "/>
<path style=" stroke:none;fill-rule:nonzero;fill:rgb(0%,0%,0%);fill-opacity:1;" d="M 100.332031 109.746094 C 100.332031 110.367188 101.863281 113.003906 102.71875 113.855469 C 103.679688 114.789062 105.675781 115.796875 105.984375 115.460938 C 106.246094 115.226562 102.796875 109.925781 102.277344 109.796875 C 101.679688 109.640625 100.332031 109.589844 100.332031 109.746094 Z M 100.332031 109.746094 "/>
<path style=" stroke:none;fill-rule:nonzero;fill:rgb(0%,0%,0%);fill-opacity:1;" d="M 134.425781 111.21875 C 133.414062 111.738281 131.183594 113.855469 131.183594 114.324219 C 131.183594 114.660156 134.96875 117.269531 137.148438 118.40625 C 140.882812 120.375 145.964844 120.785156 149.101562 119.390625 C 149.878906 119.054688 150.707031 118.539062 150.964844 118.226562 C 151.460938 117.710938 151.433594 117.683594 144.40625 114.191406 C 136.757812 110.390625 136.292969 110.238281 134.425781 111.21875 Z M 134.425781 111.21875 "/>
<path style=" stroke:none;fill-rule:nonzero;fill:rgb(0%,0%,0%);fill-opacity:1;" d="M 126.492188 115.976562 C 124.054688 116.855469 123.304688 117.398438 123.511719 118.125 C 123.953125 119.519531 129.265625 123.554688 131.703125 124.328125 C 132.765625 124.691406 135.046875 124.769531 136.371094 124.511719 C 137.25 124.355469 138.394531 123.710938 138.160156 123.503906 C 138.105469 123.449219 137.304688 122.804688 136.371094 122.078125 C 135.464844 121.328125 134.21875 120.296875 133.648438 119.777344 C 129.863281 116.261719 128.179688 115.355469 126.492188 115.976562 Z M 126.492188 115.976562 "/>
<path style=" stroke:none;fill-rule:nonzero;fill:rgb(0%,0%,0%);fill-opacity:1;" d="M 102.925781 117.269531 C 102.925781 118.070312 104.535156 121.019531 105.519531 122.027344 C 106.347656 122.882812 108.785156 124.046875 109.121094 123.734375 C 109.175781 123.65625 108.65625 122.390625 107.957031 120.863281 C 107.125 119.082031 106.503906 118.046875 106.167969 117.917969 C 105.882812 117.8125 105.179688 117.582031 104.609375 117.398438 C 104.039062 117.21875 103.417969 117.011719 103.261719 116.960938 C 103.082031 116.882812 102.925781 117.039062 102.925781 117.269531 Z M 102.925781 117.269531 "/>
<path style=" stroke:none;fill-rule:nonzero;fill:rgb(0%,0%,0%);fill-opacity:1;" d="M 109.304688 117.839844 C 109.175781 117.996094 109.976562 120.375 110.523438 121.433594 C 111.171875 122.675781 113.554688 125.132812 114.566406 125.648438 C 115.757812 126.242188 117.9375 126.839844 118.144531 126.605469 C 118.222656 126.527344 118.144531 126.242188 117.910156 126.011719 C 117.703125 125.75 117.082031 124.664062 116.5625 123.605469 C 114.929688 120.425781 114.617188 120.035156 113.035156 119.441406 C 112.257812 119.15625 111.117188 118.640625 110.523438 118.304688 C 109.925781 117.996094 109.382812 117.761719 109.304688 117.839844 Z M 109.304688 117.839844 "/>
<path style=" stroke:none;fill-rule:nonzero;fill:rgb(0%,0%,0%);fill-opacity:1;" d="M 117.445312 118.355469 C 117.082031 118.433594 116.691406 118.589844 116.5625 118.691406 C 116.355469 118.898438 117.832031 121.199219 119.15625 122.753906 C 119.441406 123.0625 120.011719 123.734375 120.425781 124.253906 C 121.878906 126.035156 125.300781 127.175781 127.089844 126.476562 L 127.816406 126.21875 L 125.609375 123.425781 C 124.394531 121.875 122.914062 120.089844 122.34375 119.390625 L 121.28125 118.175781 L 119.699219 118.199219 C 118.820312 118.226562 117.808594 118.304688 117.445312 118.355469 Z M 117.445312 118.355469 "/>
<path style=" stroke:none;fill-rule:nonzero;fill:rgb(0%,0%,0%);fill-opacity:1;" d="M 208.964844 132.5 C 203.984375 133.820312 199.1875 136.636719 195.949219 140.128906 C 193.199219 143.078125 190.320312 147.964844 188.894531 152.152344 C 186.953125 157.765625 186.925781 163.917969 188.84375 166.789062 C 189.777344 168.160156 191.488281 169.738281 192.757812 170.382812 C 197.945312 172.96875 206.941406 171.496094 214.121094 166.839844 C 216.921875 165.058594 219.152344 162.910156 221.535156 159.78125 C 223.273438 157.480469 226.074219 152.878906 226.074219 152.335938 C 226.074219 152.207031 225.710938 151.871094 225.246094 151.585938 L 224.414062 151.042969 L 223.585938 152.59375 C 222.160156 155.257812 218.996094 158.980469 216.351562 161.101562 C 210.828125 165.546875 206.292969 167.746094 202.039062 168.003906 C 199.394531 168.1875 198.074219 167.746094 196.542969 166.222656 C 194.730469 164.386719 194.316406 163.222656 194.316406 160.066406 L 194.316406 157.351562 L 196.519531 156.910156 C 201.859375 155.800781 207.691406 153.679688 210.675781 151.738281 C 217.335938 147.449219 220.914062 140.105469 218.660156 135.34375 C 217.15625 132.191406 213.835938 131.207031 208.964844 132.5 Z M 213.65625 136.976562 C 214.097656 138.085938 213.785156 140.648438 213.035156 142.09375 C 211.503906 145.09375 206.8125 149.542969 202.894531 151.738281 C 200.925781 152.828125 198.386719 153.730469 196.542969 154.015625 C 195.457031 154.195312 195.429688 154.171875 195.609375 153.574219 C 196 152.28125 198.386719 148.042969 200.511719 144.835938 C 204.347656 139.121094 208.03125 136.355469 211.894531 136.300781 C 213.292969 136.277344 213.394531 136.328125 213.65625 136.976562 Z M 213.65625 136.976562 "/>
<path style=" stroke:none;fill-rule:nonzero;fill:rgb(0%,0%,0%);fill-opacity:1;" d="M 158.40625 134.078125 C 155.398438 134.878906 150.863281 137.078125 148.425781 138.914062 C 144.5625 141.785156 141.605469 145.300781 139.609375 149.335938 C 138.082031 152.464844 137.40625 154.972656 137.226562 158.257812 C 136.941406 163.429688 138.367188 166.453125 141.761719 168.03125 C 143.035156 168.601562 143.394531 168.652344 145.78125 168.546875 C 147.699219 168.445312 148.839844 168.265625 149.929688 167.851562 C 152.210938 166.945312 155.113281 164.875 157.65625 162.316406 C 158.925781 161.050781 159.964844 160.195312 159.964844 160.429688 C 159.964844 161.101562 158.175781 167.851562 157.5 169.789062 L 156.824219 171.601562 L 151.511719 174.160156 C 143.8125 177.859375 140.363281 180.3125 138.496094 183.417969 C 136.734375 186.3125 136.34375 190.554688 137.667969 192.46875 C 138.988281 194.40625 141.167969 195.207031 144.226562 194.871094 C 148.0625 194.484375 151.613281 191.511719 155.996094 185.019531 C 157.863281 182.28125 159.832031 178.53125 161.882812 173.773438 L 162.839844 171.574219 L 165.613281 169.917969 C 170.152344 167.203125 173.417969 164.746094 176.167969 162.007812 C 178.550781 159.628906 178.914062 159.136719 180.523438 156.03125 C 181.480469 154.171875 182.257812 152.464844 182.257812 152.257812 C 182.257812 151.945312 181.144531 150.757812 180.859375 150.757812 C 180.808594 150.757812 180.289062 151.714844 179.691406 152.878906 C 177.515625 157.351562 174.871094 160.714844 171.5 163.222656 C 169.53125 164.695312 164.65625 167.667969 164.472656 167.515625 C 164.421875 167.4375 164.707031 166.402344 165.121094 165.210938 C 165.535156 164.023438 166.417969 161.28125 167.09375 159.160156 C 167.765625 157.015625 168.414062 155.050781 168.542969 154.765625 C 169.191406 153.421875 171.890625 143.699219 171.890625 142.742188 C 171.890625 142.378906 171.707031 141.808594 171.472656 141.5 C 171.136719 141.007812 170.851562 140.929688 169.398438 140.929688 C 167.609375 140.929688 166.417969 141.371094 165.589844 142.328125 C 164.527344 143.515625 163.386719 146.386719 162.425781 150.242188 C 161.882812 152.386719 160.792969 153.859375 156.617188 157.996094 C 152.78125 161.824219 150.628906 163.144531 147.933594 163.351562 C 146.015625 163.507812 145.183594 163.015625 144.71875 161.410156 C 144.277344 159.988281 144.328125 159.394531 145.054688 156.316406 C 146.144531 151.738281 147.675781 148.972656 151.484375 144.730469 C 154.414062 141.472656 157.371094 139.300781 159.679688 138.707031 C 161.90625 138.136719 163.75 137.828125 165.199219 137.828125 C 166.78125 137.828125 167.039062 137.90625 167.84375 138.628906 C 169.035156 139.664062 169.582031 139.535156 170.023438 138.164062 C 170.332031 137.207031 170.308594 136.976562 169.867188 135.914062 C 169.035156 134.078125 167.871094 133.585938 163.980469 133.507812 C 161.3125 133.433594 160.507812 133.535156 158.40625 134.078125 Z M 155.035156 175.738281 C 155.035156 175.816406 154.441406 177.054688 153.6875 178.503906 C 152.339844 181.140625 149.359375 185.746094 148.246094 186.984375 C 147.027344 188.277344 144.71875 190.011719 143.527344 190.449219 C 142.4375 190.863281 142.308594 190.863281 141.710938 190.476562 C 140.90625 189.960938 140.621094 188.355469 141.035156 186.570312 C 141.710938 183.625 145.574219 180.289062 152.574219 176.667969 C 154.621094 175.582031 155.035156 175.453125 155.035156 175.738281 Z M 155.035156 175.738281 "/>
<path style=" stroke:none;fill-rule:nonzero;fill:rgb(0%,0%,0%);fill-opacity:1;" d="M 107.929688 138.992188 C 104.535156 139.921875 101.292969 142.25 95.953125 147.601562 L 91.699219 151.871094 L 91.855469 150.601562 C 91.933594 149.902344 92.191406 148.457031 92.425781 147.394531 C 92.96875 144.992188 92.867188 142.328125 92.191406 141.320312 C 91.726562 140.621094 91.699219 140.59375 89.78125 140.777344 C 88.042969 140.90625 86.386719 141.449219 85.320312 142.199219 C 85.035156 142.378906 84.90625 143.050781 84.882812 144.472656 C 84.75 148.273438 83.378906 153.292969 80.5 160.378906 C 78.660156 164.875 78.269531 166.09375 78.53125 166.480469 C 78.867188 166.996094 82.261719 168.601562 83.066406 168.601562 C 84.128906 168.601562 84.414062 168.289062 87.109375 163.945312 C 93.28125 154.042969 99.191406 147.730469 103.78125 146.207031 C 106.476562 145.300781 108.835938 145.765625 109.40625 147.292969 C 109.925781 148.609375 109.691406 151.636719 108.863281 154.792969 C 107.644531 159.445312 107.539062 160.246094 107.644531 162.910156 C 107.722656 164.902344 107.851562 165.574219 108.34375 166.453125 C 109.535156 168.523438 111.820312 169.53125 114.929688 169.324219 C 120.894531 168.9375 126.542969 163.996094 130.875 155.4375 C 132.351562 152.515625 132.402344 152.207031 131.832031 151.636719 C 131.316406 151.09375 131.132812 151.25 129.757812 153.550781 C 127.917969 156.574219 125.09375 160.429688 123.382812 162.238281 C 120.011719 165.832031 115.421875 166.660156 114.695312 163.789062 C 114.410156 162.679688 114.773438 160.789062 115.992188 157.066406 C 118.273438 150.007812 118.6875 147.035156 117.78125 144.058594 C 117.132812 142.015625 114.75 139.613281 112.777344 139.015625 C 111.09375 138.527344 109.746094 138.527344 107.929688 138.992188 Z M 107.929688 138.992188 "/>
<path style=" stroke:none;fill-rule:nonzero;fill:rgb(0%,0%,0%);fill-opacity:1;" d="M 59.992188 199.476562 C 56.777344 200.199219 55.015625 202.140625 54.78125 205.140625 C 54.679688 206.535156 54.753906 206.921875 55.402344 208.164062 C 55.972656 209.277344 56.464844 209.765625 57.554688 210.414062 C 58.980469 211.265625 59.5 211.472656 63.855469 212.691406 C 65.851562 213.257812 66.527344 213.570312 67.019531 214.164062 C 67.769531 215.042969 67.820312 215.40625 67.277344 216.4375 C 66.550781 217.835938 65.4375 218.351562 63.257812 218.378906 C 61.601562 218.378906 61.160156 218.273438 60.355469 217.730469 C 59.472656 217.136719 58.332031 215.40625 58.332031 214.65625 C 58.332031 214.34375 55.558594 214.265625 54.46875 214.550781 C 53.953125 214.679688 53.875 214.808594 54.003906 215.6875 C 54.183594 217.058594 55.195312 218.949219 56.335938 220.085938 C 59.007812 222.75 65.824219 223.109375 69.273438 220.785156 C 71.945312 218.972656 72.851562 215.222656 71.375 212.277344 C 70.207031 210.027344 68.703125 209.222656 62.714844 207.648438 C 61.753906 207.414062 60.5625 206.976562 60.097656 206.691406 C 59.371094 206.277344 59.242188 206.042969 59.242188 205.214844 C 59.242188 203.742188 60.148438 203.148438 62.558594 203.042969 C 64.839844 202.941406 65.957031 203.507812 66.550781 205.0625 L 66.964844 206.09375 L 71.296875 206.09375 L 71.296875 205.113281 C 71.269531 202.964844 69.351562 200.585938 66.941406 199.761719 C 65.203125 199.191406 61.886719 199.0625 59.992188 199.476562 Z M 59.992188 199.476562 "/>
<path style=" stroke:none;fill-rule:nonzero;fill:rgb(0%,0%,0%);fill-opacity:1;" d="M 210.257812 199.476562 C 205.980469 200.433594 202.972656 203.976562 202.507812 208.628906 C 201.886719 214.707031 203.933594 219.359375 208.082031 221.25 C 212.230469 223.164062 217.90625 222.414062 220.835938 219.566406 C 224.105469 216.386719 225.089844 210.492188 223.195312 205.476562 C 222.496094 203.613281 220.371094 201.261719 218.503906 200.328125 C 216.222656 199.191406 213.007812 198.855469 210.257812 199.476562 Z M 215.289062 203.304688 C 215.886719 203.484375 216.820312 204.078125 217.414062 204.699219 C 218.839844 206.09375 219.386719 207.800781 219.386719 210.699219 C 219.386719 213.644531 218.710938 215.480469 217.128906 216.929688 C 215.808594 218.144531 215.132812 218.378906 212.980469 218.378906 C 210.257812 218.378906 208.105469 216.59375 207.382812 213.75 C 207.226562 213.078125 207.121094 211.398438 207.199219 209.898438 C 207.277344 207.441406 207.355469 207.078125 208.054688 205.964844 C 208.9375 204.542969 209.742188 203.898438 211.191406 203.378906 C 212.464844 202.914062 213.914062 202.890625 215.289062 203.304688 Z M 215.289062 203.304688 "/>
<path style=" stroke:none;fill-rule:nonzero;fill:rgb(0%,0%,0%);fill-opacity:1;" d="M 23.59375 210.777344 L 23.59375 221.894531 L 29.632812 221.816406 L 35.675781 221.738281 L 37.386719 220.886719 C 39.898438 219.644531 41.480469 217.371094 42.234375 213.90625 C 43.191406 209.355469 41.664062 203.640625 38.863281 201.441406 C 36.816406 199.835938 35.75 199.628906 29.246094 199.628906 L 23.59375 199.628906 Z M 35 204 C 37.023438 204.957031 38.058594 208.0625 37.722656 212.25 C 37.59375 213.777344 37.359375 214.734375 36.867188 215.714844 C 35.828125 217.730469 35.078125 218.066406 31.320312 218.199219 L 28.257812 218.300781 L 28.257812 203.535156 L 29.761719 203.457031 C 32.070312 203.328125 34.015625 203.535156 35 204 Z M 35 204 "/>
<path style=" stroke:none;fill-rule:nonzero;fill:rgb(0%,0%,0%);fill-opacity:1;" d="M 46.148438 210.75 L 46.148438 221.871094 L 50.816406 221.871094 L 50.761719 210.800781 L 50.683594 199.761719 L 48.429688 199.683594 L 46.148438 199.605469 Z M 46.148438 210.75 "/>
<path style=" stroke:none;fill-rule:nonzero;fill:rgb(0%,0%,0%);fill-opacity:1;" d="M 74.40625 201.441406 C 74.40625 203.507812 74.070312 203.304688 77.777344 203.378906 C 78.839844 203.40625 79.980469 203.457031 80.320312 203.484375 L 80.890625 203.507812 L 80.890625 221.871094 L 85.554688 221.871094 L 85.554688 212.714844 C 85.554688 205.628906 85.632812 203.535156 85.894531 203.457031 C 86.046875 203.378906 87.5 203.355469 89.054688 203.378906 C 90.636719 203.433594 91.960938 203.355469 92.035156 203.25 C 92.113281 203.148438 92.113281 202.269531 92.089844 201.335938 L 91.984375 199.628906 L 74.40625 199.628906 Z M 74.40625 201.441406 "/>
<path style=" stroke:none;fill-rule:nonzero;fill:rgb(0%,0%,0%);fill-opacity:1;" d="M 95.148438 210.75 L 95.148438 221.894531 L 97.429688 221.816406 L 99.683594 221.738281 L 99.761719 217.136719 L 99.816406 212.558594 L 101.007812 212.558594 C 103.445312 212.558594 104.015625 213.101562 107.980469 219.078125 L 109.796875 221.84375 L 112.464844 221.84375 C 113.917969 221.871094 115.109375 221.792969 115.109375 221.714844 C 115.109375 221.480469 112.390625 217.164062 111.039062 215.222656 C 110.417969 214.34375 109.433594 213.285156 108.835938 212.84375 L 107.800781 212.070312 L 108.785156 211.808594 C 111.609375 211.035156 113.246094 209.148438 113.476562 206.378906 C 113.710938 203.769531 112.542969 201.519531 110.339844 200.328125 C 109.328125 199.785156 108.914062 199.761719 102.226562 199.683594 L 95.148438 199.605469 Z M 108.164062 204.335938 C 108.835938 205.0625 108.941406 205.320312 108.8125 206.300781 C 108.734375 207.078125 108.472656 207.671875 108.007812 208.136719 C 107.332031 208.785156 107.230469 208.8125 103.574219 208.886719 L 99.839844 208.964844 L 99.761719 206.25 L 99.683594 203.507812 L 107.386719 203.507812 Z M 108.164062 204.335938 "/>
<path style=" stroke:none;fill-rule:nonzero;fill:rgb(0%,0%,0%);fill-opacity:1;" d="M 117.832031 199.96875 C 117.753906 200.121094 117.730469 205.113281 117.753906 211.007812 L 117.832031 221.738281 L 119.984375 221.816406 L 122.109375 221.894531 L 122.109375 199.628906 L 120.035156 199.628906 C 118.609375 199.628906 117.910156 199.734375 117.832031 199.96875 Z M 117.832031 199.96875 "/>
<path style=" stroke:none;fill-rule:nonzero;fill:rgb(0%,0%,0%);fill-opacity:1;" d="M 126.519531 210.722656 L 126.519531 221.871094 L 133.078125 221.871094 C 140.234375 221.871094 141.347656 221.714844 143.007812 220.449219 C 144.019531 219.671875 145.03125 217.835938 145.289062 216.285156 C 145.679688 214.113281 144.511719 211.808594 142.539062 210.75 L 141.320312 210.078125 L 142.203125 209.378906 C 143.65625 208.214844 144.226562 206.84375 144.097656 204.777344 C 144.019531 203.277344 143.890625 202.863281 143.214844 202.035156 C 142.773438 201.492188 141.894531 200.769531 141.269531 200.40625 C 140.15625 199.761719 140.027344 199.761719 133.335938 199.683594 L 126.519531 199.605469 Z M 139.300781 204.3125 C 139.792969 204.933594 139.894531 206.378906 139.480469 207.15625 C 138.9375 208.164062 137.875 208.421875 134.425781 208.421875 L 131.183594 208.421875 L 131.183594 203.535156 L 134.113281 203.457031 C 137.5625 203.355469 138.679688 203.5625 139.300781 204.3125 Z M 138.9375 212.714844 C 140.777344 213.441406 141.296875 215.894531 139.871094 217.214844 C 139.039062 217.992188 137.746094 218.222656 134.246094 218.25 L 131.183594 218.25 L 131.183594 212.300781 L 134.554688 212.300781 C 137.019531 212.300781 138.183594 212.40625 138.9375 212.714844 Z M 138.9375 212.714844 "/>
<path style=" stroke:none;fill-rule:nonzero;fill:rgb(0%,0%,0%);fill-opacity:1;" d="M 149.179688 200.019531 C 149.074219 200.25 149.074219 204 149.125 208.371094 C 149.230469 215.820312 149.28125 216.414062 149.824219 217.785156 C 150.214844 218.816406 150.757812 219.59375 151.5625 220.292969 C 153.300781 221.816406 154.828125 222.257812 158.40625 222.230469 C 161.050781 222.230469 161.570312 222.152344 162.839844 221.558594 C 164.550781 220.785156 165.5625 219.828125 166.210938 218.378906 C 166.910156 216.800781 167.25 212.171875 167.171875 205.578125 L 167.09375 199.761719 L 164.835938 199.683594 L 162.582031 199.605469 L 162.503906 207.828125 C 162.425781 215.457031 162.398438 216.101562 161.90625 216.878906 C 161.207031 218.042969 159.652344 218.609375 157.65625 218.429688 C 155.839844 218.273438 154.90625 217.730469 154.234375 216.414062 C 153.765625 215.507812 153.742188 214.835938 153.742188 207.519531 L 153.742188 199.628906 L 151.535156 199.628906 C 149.800781 199.628906 149.28125 199.707031 149.179688 200.019531 Z M 149.179688 200.019531 "/>
<path style=" stroke:none;fill-rule:nonzero;fill:rgb(0%,0%,0%);fill-opacity:1;" d="M 171.890625 210.75 L 171.890625 221.871094 L 176.296875 221.871094 L 176.296875 199.628906 L 171.890625 199.628906 Z M 171.890625 210.75 "/>
<path style=" stroke:none;fill-rule:nonzero;fill:rgb(0%,0%,0%);fill-opacity:1;" d="M 180.445312 210.75 L 180.445312 221.921875 L 186.613281 221.816406 C 192.394531 221.738281 192.835938 221.6875 194.105469 221.121094 C 196.542969 220.035156 198.464844 217.34375 199.136719 214.113281 C 199.320312 213.285156 199.371094 211.527344 199.292969 209.84375 C 199.1875 207.542969 199.035156 206.664062 198.464844 205.269531 C 197.605469 203.121094 196.105469 201.390625 194.339844 200.457031 C 193.019531 199.761719 192.992188 199.761719 186.746094 199.683594 L 180.445312 199.578125 Z M 191.539062 203.820312 C 192.550781 204.128906 193.25 204.800781 194.003906 206.226562 C 194.496094 207.128906 194.574219 207.671875 194.574219 210.75 C 194.574219 213.957031 194.523438 214.34375 193.925781 215.507812 C 192.8125 217.707031 191.59375 218.222656 187.394531 218.25 L 185.109375 218.25 L 185.109375 210.90625 C 185.109375 205.242188 185.1875 203.535156 185.449219 203.433594 C 185.992188 203.25 190.632812 203.535156 191.539062 203.820312 Z M 191.539062 203.820312 "/>
<path style=" stroke:none;fill-rule:nonzero;fill:rgb(0%,0%,0%);fill-opacity:1;" d="M 227.628906 210.722656 L 227.628906 221.871094 L 232.296875 221.871094 L 232.296875 212.558594 L 233.464844 212.558594 C 234.890625 212.558594 236.105469 213.050781 236.910156 213.90625 C 237.222656 214.265625 238.570312 216.15625 239.917969 218.144531 L 242.328125 221.738281 L 245 221.816406 C 247.464844 221.894531 247.644531 221.84375 247.488281 221.429688 C 246.96875 220.085938 243.367188 214.863281 242.070312 213.542969 C 240.773438 212.277344 240.617188 212.015625 241.035156 211.886719 C 243.574219 211.058594 244.480469 210.386719 245.363281 208.628906 C 246.894531 205.578125 245.777344 201.90625 242.847656 200.328125 C 241.8125 199.785156 241.421875 199.761719 234.707031 199.683594 L 227.628906 199.605469 Z M 240.464844 204.105469 C 240.980469 204.519531 241.1875 205.007812 241.292969 205.863281 C 241.421875 206.921875 241.34375 207.15625 240.644531 207.929688 L 239.867188 208.8125 L 236.082031 208.886719 L 232.296875 208.964844 L 232.296875 203.507812 L 236.03125 203.507812 C 239.554688 203.507812 239.816406 203.535156 240.464844 204.105469 Z M 240.464844 204.105469 "/>
<path style=" stroke:none;fill-rule:nonzero;fill:rgb(0%,0%,0%);fill-opacity:1;" d="M 256.019531 201.492188 C 255.628906 202.527344 254.671875 205.007812 253.894531 207 C 253.113281 208.992188 251.792969 212.429688 250.910156 214.628906 C 250.054688 216.828125 249.070312 219.359375 248.734375 220.242188 L 248.109375 221.871094 L 252.90625 221.871094 L 253.816406 219.414062 L 254.722656 216.957031 L 259.257812 217.007812 L 263.796875 217.085938 L 264.703125 219.464844 L 265.609375 221.871094 L 268.046875 221.871094 C 270.433594 221.871094 270.460938 221.871094 270.304688 221.273438 C 270.199219 220.964844 268.253906 216 265.921875 210.234375 L 261.722656 199.761719 L 256.746094 199.605469 Z M 260.761719 209.042969 C 261.515625 211.007812 262.035156 212.714844 261.957031 212.84375 C 261.878906 212.972656 260.605469 213.078125 259.105469 213.078125 C 256.898438 213.078125 256.40625 213 256.40625 212.691406 C 256.40625 211.992188 259.078125 205.035156 259.257812 205.242188 C 259.363281 205.34375 260.035156 207.050781 260.761719 209.042969 Z M 260.761719 209.042969 "/>
</g>
</svg>
